<svg id="Layer_1" data-name="Layer 1" xmlns="http://www.w3.org/2000/svg" viewBox="0 0 272 420"><defs><style>.cls-1{fill:gray;}</style></defs><title>logo_4</title><path class="cls-1" d="M169.44,383.14h7.51V419h-7.32V404.53H153.55V419h-7.33V383.12h7.25v14.52h16Z"/><path class="cls-1" d="M195.1,419V383.12h25.07v6.79H202.78v7.82h15.3v6.62H202.71V412h17.47V419Z"/><path class="cls-1" d="M268.89,418.79c-5.5,1.77-8.66-.42-11.22-5.18a146.08,146.08,0,0,0-12-18.14V419H238.2V383c2.62,0,5.17-.08,7.7.06a2.66,2.66,0,0,1,1.7,1.22q10.69,16.93,21.28,33.93C269,418.32,268.89,418.58,268.89,418.79Z"/><path class="cls-1" d="M70.26,389.89v-6.71h29v6.55H88.73v29.2h-7.6v-29Z"/><path class="cls-1" d="M129.76,382.95c-3.47,5.5-6.51,10.53-9.77,15.41-1.32,2-1.35,3.39,0,5.42,3.32,4.83,6.3,9.89,9.75,15.38a70.93,70.93,0,0,1-7.3-.08,3.88,3.88,0,0,1-2.34-1.72c-3.11-4.78-6.19-9.58-9.07-14.5a4.25,4.25,0,0,1,0-3.61c2.87-4.93,5.92-9.75,9.08-14.49a4.75,4.75,0,0,1,3-1.73A51.32,51.32,0,0,1,129.76,382.95Z"/><path class="cls-1" d="M56.75,419H49.57V383.17h7.19Z"/><path class="cls-1" d="M262.16,383.15h7.25v7h-7.25Z"/><path class="cls-1" d="M26.59,402.44c-2.43-3.34-2.31-5.85.09-9s4.26-6.61,6.44-10.07c-7.45-1.22-7.53-1.17-11,4.4q-6,9.54-12,19.08V383.08H2.65v35.56l.18.07-.12.23.87.08h0c6.71.62,6.86.4,10.48-5.34l5.42-8.57c1.87,2.95,3.65,5.17,4.79,7.69,2.45,5.42,6.13,8,12.64,5.87C33.49,413.22,30.34,407.61,26.59,402.44Z"/><path class="cls-1" d="M180.61,340.54h-.37c-3.35-.18-5.53-2.85-6.25-3.73a27.1,27.1,0,0,0-4.17-4.18c-3-2.32-6.35-5.56-6.13-10a8.73,8.73,0,0,1,1.08-3.74c-2.49-.08-4.9-.13-7.27-.17a135.92,135.92,0,0,1-18-1.09c-13.37-2-24.49-6.51-33.07-13.4-9.1-7.31-15.61-17.5-19.35-30.29-4.87-16.64-14.73-29.8-30.15-40.24-6.7-4.54-13.48-9.2-20-13.7-4.39-3-8.92-6.14-13.39-9.19-2.59-1.77-7.42-5.07-5.79-11.5,1.09-4.3,4.23-7.18,9.32-8.59,6-1.65,12.13-.83,18.29,2.42L69,205.63l2.65,1.4a18.22,18.22,0,0,0-8.44-8.71c-3.75-2.06-6.46-3.55-7.45-6.54a8.31,8.31,0,0,1,0-4.8H11.19L10,187c-2.2.07-5.21.16-7.51-2C.91,183.45.08,181.23,0,178.19c-.08-3.29.68-5.7,2.32-7.38,2.38-2.42,5.57-2.41,8.39-2.4h.62c52.47,0,105.81,0,157.4,0h91.7l1.13,0c2.23-.06,5.29-.16,7.63,2.06,1.63,1.54,2.45,3.76,2.53,6.78.08,3.27-.68,5.67-2.34,7.35C267,187.06,263.64,187,261,187h-.66c-13.62-.05-28.16,0-43.37.24,2.34,4.54,1.12,9.75-.36,13.89-2.4,6.72-2.34,14.06-2.27,21.82,0,1.76,0,3.57,0,5.37-.14,15.93-.15,30.42,1.09,45a26,26,0,0,1,7.82,3c4.53,2.51,9.75,6.73,10.84,11,1,4.08-1.67,6.39-2.83,7.38l-.46.4c-5.52,5.35-11.15,10.77-16.6,16-8.9,8.57-18.1,17.42-27.07,26.21C185.69,338.72,183.49,340.54,180.61,340.54Zm0-7.78,0,0,.08-.05Zm-2.42-13.86a7.12,7.12,0,0,1,5,2,7.5,7.5,0,0,1,2.18,5.48,7,7,0,0,1-.4,2.31c7.94-7.75,16-15.51,23.84-23,5.44-5.24,11.07-10.65,16.58-16,.29-.28.57-.52.82-.73l.16-.14a18.63,18.63,0,0,0-5.8-5.08c-3.85-2.37-6.83-3-7.57-2.83a3.81,3.81,0,0,1-5-3.27c-1.59-16.16-1.59-31.89-1.44-49.3,0-1.73,0-3.51,0-5.23-.07-8.09-.14-16.46,2.72-24.46,2.42-6.77,1.56-9.1-4.18-11.34a3.82,3.82,0,0,1,1.29-7.38c19-.53,37.13-.54,53.85-.48h.7a14.69,14.69,0,0,0,2.9-.14,5.49,5.49,0,0,0,.16-1.76,5.33,5.33,0,0,0-.17-1.35,14.3,14.3,0,0,0-2.12,0l-1.35,0h-91.7c-51.59,0-104.94,0-157.41,0h-.65a15.29,15.29,0,0,0-2.88.15,7.68,7.68,0,0,0,0,3.13,15.58,15.58,0,0,0,2,0l1.38,0H61.06a3.82,3.82,0,0,1,3.59,5.14l0,.09a36.54,36.54,0,0,0-1.55,4.76,32.2,32.2,0,0,0,3.82,2.3c8.74,4.81,13.25,11.91,14.2,22.37a3.82,3.82,0,0,1-5.6,3.73l-10.07-5.33L41.77,199.9c-4.44-2.35-8.6-2.94-12.69-1.81-3,.82-3.65,2-3.94,3.09-.22.89-.32,1.25,2.69,3.3,4.48,3.06,9,6.18,13.41,9.2,6.54,4.5,13.3,9.15,20,13.67,16.72,11.32,27.89,26.27,33.2,44.43,6.46,22.07,21.58,34.59,46.22,38.28a130.32,130.32,0,0,0,17,1c5.13.09,10.44.18,16.41.69a3.82,3.82,0,0,1,1.71,7c-4.29,2.71-4.41,4.14-4.41,4.2a1.18,1.18,0,0,0,.2.59,6.67,6.67,0,0,1,1.31-2.36A7,7,0,0,1,178,318.9Zm-.43,7.3.07.09,0-.18Zm1,0h0ZM154.74,260.5c-16.24,0-26.8-9.3-29-25.61-1-7.36-.72-14.59-.29-22.6a42.16,42.16,0,0,0-.28-9.21c-.6-3.49-2.09-3.59-2.89-3.65-2.09-.15-3.43.67-4.45,2.74-2.87,5.79-3.15,12.25-3.49,20.43l0,.9a3.82,3.82,0,0,1-6.6,2.46c-5.15-5.45-8.36-11.76-11.45-17.86-4.28-8.43-8.32-16.4-17.15-21a3.82,3.82,0,0,1,1.76-7.22H196.28a3.82,3.82,0,0,1,1.54,7.32c-11.58,5.1-12.53,14.11-13.63,24.53l-.12,1.15c-.37,3.42-.61,6.94-.85,10.34-.27,3.77-.54,7.66-1,11.51-2,17.33-10.51,25.51-26.88,25.74Zm-32.94-68.74q.49,0,1,0c5.25.37,8.85,4,9.89,10a49,49,0,0,1,.38,10.93c-.41,7.62-.68,14.46.23,21.16,1.69,12.44,9.1,19,21.44,19h.51c6.26-.09,10.74-1.52,13.71-4.37s4.91-7.7,5.69-14.58c.42-3.69.69-7.5.95-11.19.24-3.47.5-7.07.88-10.62h0l.12-1.14c.83-7.91,1.75-16.57,7.77-23.4H92.16c4.8,5.09,7.88,11.16,10.89,17.09,1.39,2.74,2.74,5.4,4.23,7.94A39.42,39.42,0,0,1,111,198.76C113.23,194.22,117.05,191.76,121.81,191.76Z"/><path class="cls-1" d="M13.18,165.71c-3.45,0-7.26-.31-9.91-2.93s-3.05-6.7-3.06-9.91C.08,88.33,45.45,32.23,108.09,19.46c3.79-.77,5-1.72,6.3-4.81C118.15,5.49,126,.33,136.38.13c11.05-.21,19.12,4.61,22.71,13.57,1.73,4.33,4.12,5.57,8.82,6.72A139.41,139.41,0,0,1,210.6,38.74a133.62,133.62,0,0,1,54.12,69.53A139.23,139.23,0,0,1,272,154c0,3.14-.38,6.68-2.84,9.08s-5.92,2.66-9,2.63c-31.2-.21-62.93-.18-93.62-.16l-30.63,0-30.8,0c-30,0-60.92-.06-91.37.18l0-3.82,0,3.82ZM137.1,7.77h-.57c-7.49.14-12.42,3.35-15.07,9.79s-6.61,8.33-11.84,9.39A124.76,124.76,0,0,0,68.73,43.18,127.68,127.68,0,0,0,36.5,71.68,129.32,129.32,0,0,0,7.86,152.85c0,3.44.61,4.31.79,4.49.35.34,1.49.74,5,.72,30.48-.24,61.47-.21,91.44-.18l30.79,0h.19l30.43,0c30.7,0,62.45,0,93.68.16,3.12,0,3.63-.45,3.65-.47s.51-.53.53-3.65a131.6,131.6,0,0,0-6.88-43.2,126,126,0,0,0-51-65.56,131.79,131.79,0,0,0-40.36-17.31c-6.38-1.56-11.21-4.08-14.1-11.31C149.66,10.72,144.65,7.77,137.1,7.77Zm8.82,16.33H127.61a3.82,3.82,0,0,1-2.92-6.29c4.5-5.33,8.76-7.82,13.06-7.61,4.09.2,7.79,2.79,11.32,7.91a3.82,3.82,0,0,1-3.15,6Z"/></svg>