<svg id="Layer_1" data-name="Layer 1" xmlns="http://www.w3.org/2000/svg" viewBox="0 0 640 87"><defs><style>.cls-1{fill:#fff;}</style></defs><title>name_2</title><path class="cls-1" d="M400.07.15h18V86.09H400.53V51.47H362V86.21H344.36V.08h17.4V34.93h38.31Z"/><path class="cls-1" d="M461.67,86.08V.08h60.16v16.3H480.1V35.15h36.72V51h-36.9V69.47h41.91V86.08Z"/><path class="cls-1" d="M638.73,85.68c-13.19,4.26-20.78-1-26.94-12.42C603.63,58.14,593.69,44,583,29.72V86.09H565.08V-.28c6.29,0,12.4-.19,18.47.14,1.43.08,3.22,1.59,4.07,2.93q25.66,40.64,51.08,81.42C638.92,84.57,638.73,85.18,638.73,85.68Z"/><path class="cls-1" d="M162.08,16.33V.22h69.64V15.93H206.39V86H188.16V16.33Z"/><path class="cls-1" d="M304.87-.32c-8.32,13.2-15.62,25.27-23.45,37-3.16,4.73-3.24,8.15.09,13,8,11.6,15.13,23.74,23.39,36.9-6.89,0-12.25.39-17.51-.19-2-.22-4.41-2.25-5.62-4.12-7.47-11.46-14.87-23-21.76-34.81A10.19,10.19,0,0,1,260,38.8C266.84,27,274.16,15.4,281.75,4,283.15,1.91,286.38.23,289-.14,293.69-.8,298.56-.32,304.87-.32Z"/><path class="cls-1" d="M129.66,86.26H112.42V.2h17.25Z"/><path class="cls-1" d="M622.59.17H640V17.06H622.59Z"/><path class="cls-1" d="M57.28,46.44c-5.82-8-5.55-14,.21-21.62S67.71,9,72.94.66C55.07-2.26,54.87-2.14,46.49,11.22Q32.12,34.12,17.72,57V0H-.17V85.33l.43.18L0,86.06,2,86.26H2c16.1,1.5,16.46.95,25.16-12.82l13-20.57C44.68,59.94,49,65.27,51.7,71.31,57.58,84.32,66.42,90.48,82,85.4,73.84,72.33,66.29,58.85,57.28,46.44Z"/></svg>