<svg id="Layer_1" data-name="Layer 1" xmlns="http://www.w3.org/2000/svg" viewBox="0 0 85.62 131"><defs><style>.cls-1{fill:#fff;}</style></defs><title>logo_2</title><path class="cls-1" d="M53,119.68h2.34v11.18H53v-4.5H48v4.52H45.74v-11.2H48v4.53h5Z"/><path class="cls-1" d="M61,130.86V119.67h7.83v2.12H63.39v2.44h4.78v2.07h-4.8v2.4h5.45v2.16Z"/><path class="cls-1" d="M84,130.8c-1.72.55-2.7-.13-3.5-1.62a45.6,45.6,0,0,0-3.75-5.66v7.33H74.45V119.62c.82,0,1.61,0,2.4,0a.83.83,0,0,1,.53.38q3.34,5.29,6.64,10.59S84,130.74,84,130.8Z"/><path class="cls-1" d="M22,121.78v-2.09h9.06v2H27.79v9.11H25.42v-9.06Z"/><path class="cls-1" d="M40.6,119.62c-1.08,1.72-2,3.29-3.05,4.81a1.29,1.29,0,0,0,0,1.69c1,1.51,2,3.09,3,4.8a22.14,22.14,0,0,1-2.28,0,1.21,1.21,0,0,1-.73-.54c-1-1.49-1.93-3-2.83-4.53a1.33,1.33,0,0,1,0-1.13c.9-1.54,1.85-3,2.83-4.52a1.48,1.48,0,0,1,.94-.54A16,16,0,0,1,40.6,119.62Z"/><path class="cls-1" d="M17.81,130.88H15.57V119.69h2.24Z"/><path class="cls-1" d="M81.93,119.68h2.26v2.2H81.93Z"/><path class="cls-1" d="M8.4,125.7a2,2,0,0,1,0-2.81c.74-1,1.33-2.06,2-3.14-2.33-.38-2.35-.36-3.44,1.37l-3.74,6v-7.41H.92v11.1l.06,0,0,.07.27,0h0c2.09.19,2.14.12,3.27-1.67l1.69-2.68a21.81,21.81,0,0,1,1.5,2.4c.77,1.69,1.91,2.49,3.95,1.83C10.55,129.07,9.57,127.32,8.4,125.7Z"/><path class="cls-1" d="M56.47,106.38h-.12a2.85,2.85,0,0,1-2-1.16,8.46,8.46,0,0,0-1.3-1.3c-.93-.73-2-1.74-1.91-3.12a2.73,2.73,0,0,1,.34-1.17l-2.27-.05a42.43,42.43,0,0,1-5.61-.34A21.24,21.24,0,0,1,33.32,95a18.43,18.43,0,0,1-6-9.46A22.34,22.34,0,0,0,17.87,73c-2.09-1.42-4.21-2.87-6.25-4.28L7.44,65.88c-.81-.55-2.32-1.58-1.81-3.59a3.72,3.72,0,0,1,2.91-2.68,7.61,7.61,0,0,1,5.71.76l7.38,3.9.83.44A5.69,5.69,0,0,0,19.82,62c-1.17-.64-2-1.11-2.33-2a2.59,2.59,0,0,1,0-1.5H3.23a3.06,3.06,0,0,1-2.35-.63A2.87,2.87,0,0,1,.1,55.7a3,3,0,0,1,.73-2.3,3.36,3.36,0,0,1,2.62-.75h78.3a3.11,3.11,0,0,1,2.38.64,2.86,2.86,0,0,1,.79,2.12,3,3,0,0,1-.73,2.3,3.41,3.41,0,0,1-2.63.74h-.21c-4.25,0-8.79,0-13.54.08a5.47,5.47,0,0,1-.11,4.34A19.67,19.67,0,0,0,67,69.68c0,.55,0,1.12,0,1.68,0,5,0,9.5.34,14.06a8.13,8.13,0,0,1,2.44.92c1.41.78,3,2.1,3.38,3.43a2.17,2.17,0,0,1-.88,2.3l-.14.13L67,97.2c-2.78,2.67-5.65,5.44-8.45,8.18A3,3,0,0,1,56.47,106.38Zm0-2.43h0l0,0Zm-.75-4.33a2.22,2.22,0,0,1,1.57.61,2.34,2.34,0,0,1,.68,1.71,2.2,2.2,0,0,1-.12.72c2.48-2.42,5-4.84,7.44-7.19l5.18-5,.25-.23.05,0A5.82,5.82,0,0,0,69,88.63a4.67,4.67,0,0,0-2.36-.88,1.19,1.19,0,0,1-1.55-1,142.47,142.47,0,0,1-.45-15.39c0-.54,0-1.1,0-1.63a21.74,21.74,0,0,1,.85-7.64c.75-2.11.49-2.84-1.31-3.54a1.19,1.19,0,0,1,.4-2.3c5.94-.16,11.59-.17,16.81-.15h.22a4.58,4.58,0,0,0,.9,0,1.71,1.71,0,0,0,0-.55,1.66,1.66,0,0,0-.05-.42,4.46,4.46,0,0,0-.66,0H3.43a4.77,4.77,0,0,0-.9,0,2.4,2.4,0,0,0,0,1,4.86,4.86,0,0,0,.62,0h16a1.19,1.19,0,0,1,1.12,1.6v0a11.41,11.41,0,0,0-.48,1.48A10,10,0,0,0,21,59.9a8.17,8.17,0,0,1,4.43,7A1.19,1.19,0,0,1,23.66,68l-3.14-1.66-7.38-3.9a5.23,5.23,0,0,0-4-.57c-.93.26-1.14.62-1.23,1s-.1.39.84,1L13,66.78c2,1.4,4.15,2.86,6.24,4.27A25,25,0,0,1,29.57,84.92c2,6.89,6.74,10.8,14.43,11.95a40.68,40.68,0,0,0,5.3.31c1.6,0,3.26.05,5.12.22A1.19,1.19,0,0,1,55,99.6c-1.34.85-1.38,1.29-1.38,1.31a.37.37,0,0,0,.06.18,2.08,2.08,0,0,1,.41-.74,2.17,2.17,0,0,1,1.6-.73Zm-.13,2.28,0,0v0Zm.32,0h0ZM48.4,81.4c-5.07,0-8.37-2.9-9.06-8a36.85,36.85,0,0,1-.09-7.06,13.16,13.16,0,0,0-.09-2.88c-.19-1.09-.65-1.12-.9-1.14a1.31,1.31,0,0,0-1.39.85c-.9,1.81-1,3.82-1.09,6.38v.28a1.19,1.19,0,0,1-2.06.77A22.55,22.55,0,0,1,30.14,65c-1.34-2.63-2.6-5.12-5.35-6.55a1.19,1.19,0,0,1,.55-2.25h36a1.19,1.19,0,0,1,.48,2.29c-3.61,1.59-3.91,4.4-4.25,7.66l0,.36c-.11,1.07-.19,2.17-.27,3.23s-.17,2.39-.3,3.59c-.61,5.41-3.28,8-8.39,8ZM38.12,59.94h.31a3.36,3.36,0,0,1,3.09,3.11,15.31,15.31,0,0,1,.12,3.41,34.93,34.93,0,0,0,.07,6.6C42.23,77,44.55,79,48.4,79h.16a6.06,6.06,0,0,0,4.28-1.37,7.27,7.27,0,0,0,1.77-4.55c.13-1.15.21-2.34.3-3.49s.16-2.21.27-3.31h0l0-.36c.26-2.47.55-5.17,2.42-7.3H28.86A21.86,21.86,0,0,1,32.27,64c.43.85.86,1.69,1.32,2.48a12.31,12.31,0,0,1,1.15-4.31A3.65,3.65,0,0,1,38.12,59.94Z"/><path class="cls-1" d="M4.21,51.81a4.21,4.21,0,0,1-3.09-.92,4.25,4.25,0,0,1-1-3.09A42.4,42.4,0,0,1,33.84,6.16c1.18-.24,1.57-.54,2-1.5A7.14,7.14,0,0,1,42.67.12c3.45-.07,6,1.44,7.09,4.24.54,1.35,1.29,1.74,2.75,2.1a43.52,43.52,0,0,1,13.33,5.72,41.71,41.71,0,0,1,16.89,21.7A43.46,43.46,0,0,1,85,48.15,3.84,3.84,0,0,1,84.11,51a3.86,3.86,0,0,1-2.82.82c-9.74-.06-19.64-.06-29.22,0H32.9c-9.35,0-19,0-28.52.06v0ZM42.89,2.51h-.18A4.7,4.7,0,0,0,38,5.57a4.46,4.46,0,0,1-3.7,2.93,38.94,38.94,0,0,0-12.76,5.06,39.85,39.85,0,0,0-10.06,8.9A40.37,40.37,0,0,0,2.55,47.79c0,1.08.19,1.34.25,1.4s.47.23,1.56.22c9.52-.07,19.19-.06,28.54-.06H52.07c9.58,0,19.49,0,29.24,0,1,0,1.13-.14,1.14-.15s.16-.17.17-1.14a41.08,41.08,0,0,0-2.15-13.49A39.32,39.32,0,0,0,64.54,14.18a41.14,41.14,0,0,0-12.6-5.4,5.53,5.53,0,0,1-4.4-3.53C46.81,3.43,45.25,2.51,42.89,2.51Zm2.75,5.1H39.93a1.19,1.19,0,0,1-.91-2C40.42,4,41.75,3.2,43.09,3.27s2.43.87,3.53,2.47a1.19,1.19,0,0,1-1,1.87Z"/></svg>