<svg id="Layer_1" data-name="Layer 1" xmlns="http://www.w3.org/2000/svg" viewBox="0 0 153 235"><defs><style>.cls-1{fill:#fff;}</style></defs><title>logo_3</title><path class="cls-1" d="M95.55,214.68h4.21v20.06h-4.1v-8.08h-9v8.11H82.54V214.67H86.6v8.13h8.94Z"/><path class="cls-1" d="M109.92,234.74V214.67h14v3.8h-9.74v4.38h8.57v3.71h-8.61v4.3H124v3.88Z"/><path class="cls-1" d="M151.26,234.65c-3.08,1-4.85-.24-6.29-2.9a81.83,81.83,0,0,0-6.72-10.16v13.16h-4.18V214.58c1.47,0,2.89,0,4.31,0a1.49,1.49,0,0,1,1,.68q6,9.49,11.92,19C151.3,234.39,151.26,234.53,151.26,234.65Z"/><path class="cls-1" d="M40,218.46V214.7H56.25v3.67H50.33v16.36H46.08V218.46Z"/><path class="cls-1" d="M73.32,214.57c-1.94,3.08-3.65,5.9-5.47,8.64a2.31,2.31,0,0,0,0,3c1.86,2.71,3.53,5.54,5.46,8.61a39.73,39.73,0,0,1-4.09,0,2.17,2.17,0,0,1-1.31-1c-1.74-2.68-3.47-5.37-5.08-8.12a2.38,2.38,0,0,1,0-2c1.61-2.76,3.31-5.46,5.09-8.12a2.66,2.66,0,0,1,1.69-1A28.75,28.75,0,0,1,73.32,214.57Z"/><path class="cls-1" d="M32.42,234.78h-4V214.7h4Z"/><path class="cls-1" d="M147.49,214.69h4.06v3.94h-4.06Z"/><path class="cls-1" d="M15.53,225.49c-1.36-1.87-1.29-3.28,0-5s2.39-3.7,3.61-5.64c-4.17-.68-4.22-.65-6.18,2.46L6.29,228V214.65H2.11v19.92l.1,0-.07.13.49,0h0c3.76.35,3.84.22,5.87-3l3-4.8a39.14,39.14,0,0,1,2.68,4.31c1.37,3,3.44,4.47,7.08,3.29C19.39,231.53,17.63,228.39,15.53,225.49Z"/><path class="cls-1" d="M101.8,190.82h-.21a5.11,5.11,0,0,1-3.5-2.09,15.18,15.18,0,0,0-2.34-2.34c-1.66-1.3-3.56-3.12-3.43-5.61a4.89,4.89,0,0,1,.6-2.09c-1.39,0-2.75-.07-4.07-.09A76.14,76.14,0,0,1,78.79,178c-7.49-1.12-13.72-3.65-18.53-7.51-5.1-4.1-8.75-9.8-10.84-17-2.73-9.32-8.25-16.7-16.89-22.54-3.75-2.54-7.55-5.15-11.22-7.68l-7.5-5.15c-1.45-1-4.16-2.84-3.24-6.44.61-2.41,2.37-4,5.22-4.81A13.66,13.66,0,0,1,26,108.24l13.24,7,1.48.78A10.21,10.21,0,0,0,36,111.15c-2.1-1.16-3.62-2-4.17-3.66a4.65,4.65,0,0,1,0-2.69H6.25A5.49,5.49,0,0,1,2,103.68,5.14,5.14,0,0,1,.63,99.87a5.42,5.42,0,0,1,1.3-4.13c1.33-1.36,3.12-1.35,4.7-1.34H7l88.17,0h52a5.57,5.57,0,0,1,4.27,1.15,5.13,5.13,0,0,1,1.42,3.8,5.39,5.39,0,0,1-1.31,4.12c-1.34,1.37-3.22,1.35-4.72,1.34h-.37c-7.63,0-15.78,0-24.29.13,1.31,2.54.63,5.46-.2,7.78-1.35,3.77-1.31,7.88-1.27,12.23,0,1,0,2,0,3-.08,8.92-.08,17,.61,25.23a14.58,14.58,0,0,1,4.38,1.66c2.54,1.41,5.46,3.77,6.07,6.16a3.9,3.9,0,0,1-1.59,4.13l-.26.23c-3.09,3-6.25,6-9.3,9-5,4.8-10.14,9.76-15.16,14.68A5.36,5.36,0,0,1,101.8,190.82Zm0-4.36h0l0,0Zm-1.35-7.76a4,4,0,0,1,2.81,1.1,4.2,4.2,0,0,1,1.22,3.07,4,4,0,0,1-.22,1.29c4.45-4.34,9-8.69,13.35-12.91,3-2.93,6.2-6,9.29-9,.16-.16.32-.29.46-.41l.09-.08a10.44,10.44,0,0,0-3.25-2.85c-2.16-1.33-3.83-1.69-4.24-1.58a2.14,2.14,0,0,1-2.77-1.83,255.69,255.69,0,0,1-.81-27.62c0-1,0-2,0-2.93,0-4.53-.08-9.22,1.52-13.7,1.35-3.79.87-5.1-2.34-6.35a2.14,2.14,0,0,1,.72-4.14c10.67-.3,20.8-.3,30.16-.27h.39a8.23,8.23,0,0,0,1.62-.08,3.07,3.07,0,0,0,.09-1,3,3,0,0,0-.09-.76,8,8,0,0,0-1.19,0H95.16L7,98.68H6.62A8.56,8.56,0,0,0,5,98.76a4.3,4.3,0,0,0,0,1.76,8.73,8.73,0,0,0,1.12,0l.77,0H34.83a2.14,2.14,0,0,1,2,2.88l0,.05a20.47,20.47,0,0,0-.87,2.66,18,18,0,0,0,2.14,1.29c4.89,2.69,7.42,6.67,8,12.53A2.14,2.14,0,0,1,42.91,122l-5.64-3L24,112a9.39,9.39,0,0,0-7.11-1c-1.67.46-2,1.1-2.2,1.73s-.18.7,1.5,1.85l7.51,5.15c3.66,2.52,7.45,5.12,11.19,7.66,9.36,6.34,15.62,14.71,18.6,24.89,3.62,12.36,12.09,19.38,25.89,21.45a73,73,0,0,0,9.51.56c2.88,0,5.85.1,9.19.39a2.14,2.14,0,0,1,1,3.94c-2.4,1.52-2.47,2.32-2.47,2.35a.66.66,0,0,0,.11.33,3.74,3.74,0,0,1,.73-1.32,3.9,3.9,0,0,1,2.88-1.3Zm-.24,4.09,0,.05,0-.1Zm.57,0h0ZM87.32,146c-9.1,0-15-5.21-16.26-14.35A66.13,66.13,0,0,1,70.9,119a23.61,23.61,0,0,0-.16-5.16c-.34-2-1.17-2-1.62-2a2.34,2.34,0,0,0-2.49,1.53c-1.61,3.24-1.76,6.86-2,11.44l0,.5a2.14,2.14,0,0,1-3.7,1.38c-2.89-3.05-4.68-6.59-6.42-10-2.4-4.72-4.66-9.19-9.61-11.75a2.14,2.14,0,0,1,1-4h64.66a2.14,2.14,0,0,1,.86,4.1c-6.49,2.86-7,7.9-7.63,13.74l-.07.65c-.2,1.91-.34,3.89-.48,5.79-.15,2.11-.3,4.29-.55,6.45-1.1,9.71-5.89,14.29-15.06,14.42ZM68.86,107.47l.56,0c2.94.21,5,2.24,5.54,5.59a27.47,27.47,0,0,1,.21,6.12,62.69,62.69,0,0,0,.13,11.85c.95,7,5.1,10.64,12,10.64h.28c3.51-.05,6-.85,7.68-2.45s2.75-4.31,3.19-8.17c.23-2.07.38-4.2.53-6.27s.28-4,.49-5.95h0l.07-.64c.47-4.43,1-9.28,4.35-13.11H52.26c2.69,2.85,4.42,6.25,6.1,9.57.78,1.53,1.54,3,2.37,4.45a22.08,22.08,0,0,1,2.06-7.74A6.55,6.55,0,0,1,68.86,107.47Z"/><path class="cls-1" d="M8,92.88c-1.93,0-4.06-.17-5.55-1.64S.75,87.48.75,85.68C.68,49.53,26.09,18.11,61.18,11c2.12-.43,2.82-1,3.53-2.69C66.82,3.13,71.19.24,77,.12,83.22,0,87.74,2.71,89.75,7.73c1,2.42,2.31,3.12,4.94,3.77A78.1,78.1,0,0,1,118.6,21.76,74.85,74.85,0,0,1,148.92,60.7,78,78,0,0,1,153,86.31c0,1.76-.21,3.74-1.59,5.09s-3.32,1.49-5.06,1.47c-17.48-.12-35.25-.1-52.44-.09H59.49c-16.78,0-34.13,0-51.19.1l0-2.14,0,2.14ZM77.43,4.4h-.32c-4.2.08-7,1.87-8.44,5.48S65,14.56,62,15.15a69.89,69.89,0,0,0-22.9,9.09,71.52,71.52,0,0,0-18.06,16A72.44,72.44,0,0,0,5,85.68c0,1.93.34,2.41.44,2.52s.83.42,2.8.4c17.08-.13,34.44-.12,51.22-.1H93.9c17.2,0,35,0,52.48.09,1.75,0,2-.25,2-.26s.28-.3.3-2a73.72,73.72,0,0,0-3.85-24.2,70.57,70.57,0,0,0-28.59-36.72,73.82,73.82,0,0,0-22.61-9.7c-3.57-.88-6.28-2.29-7.9-6.34C84.47,6.06,81.66,4.4,77.43,4.4Zm4.94,9.15H72.11A2.14,2.14,0,0,1,70.48,10C73,7,75.38,5.65,77.79,5.77s4.37,1.56,6.34,4.43a2.14,2.14,0,0,1-1.76,3.36Z"/></svg>