<svg id="Layer_1" data-name="Layer 1" xmlns="http://www.w3.org/2000/svg" viewBox="0 0 3467 476"><defs><style>.cls-1{fill:#fff;}</style></defs><title>name_5</title><path class="cls-1" d="M2162.55,5.64h97.39V470H2165V283H1956.56V470.7h-95V5.31h94V193.58h207Z"/><path class="cls-1" d="M2495.41,470V5.28h325.07V93.36H2595V194.8h198.44v85.82H2594.07v99.59h226.47V470Z"/><path class="cls-1" d="M3452.12,467.81c-71.29,23-112.29-5.46-145.55-67.11-44.1-81.71-97.8-158.23-155.62-235.27V470.06h-96.78V3.36c34,0,67-1,99.8.75,7.71.41,17.42,8.58,22,15.84q138.63,219.58,276,440C3453.16,461.8,3452.12,465.1,3452.12,467.81Z"/><path class="cls-1" d="M876.54,93.08V6h376.3V90.92H1116V469.51h-98.5V93.08Z"/><path class="cls-1" d="M1648.13,3.1c-44.94,71.33-84.42,136.54-126.7,199.88-17.06,25.57-17.49,44,.51,70.26,43,62.68,81.75,128.29,126.41,199.41-37.23,0-66.21,2.08-94.61-1.05-11-1.21-23.83-12.18-30.39-22.24C1483,387.43,1443,325.13,1405.75,261.29c-7-12-7.22-34.9-.3-46.79,37.18-63.87,76.72-126.45,117.73-187.95,7.6-11.4,25-20.47,39-22.44C1587.71.54,1614.05,3.1,1648.13,3.1Z"/><path class="cls-1" d="M701.39,470.94H608.2V5.92h93.2Z"/><path class="cls-1" d="M3364.93,5.76H3459V97h-94.07Z"/><path class="cls-1" d="M310.26,255.82c-31.48-43.33-30-75.9,1.14-116.81,30.77-40.46,55.21-85.72,83.51-130.59C298.31-7.34,297.24-6.72,252,65.46Q174.33,189.22,96.49,312.86V4.83H-.17V466l2.32,1c-.54,1-1,1.95-1.59,3l11.23,1.05h0c87,8.09,88.92,5.12,135.93-69.28C170.28,366,192.84,330.28,218,290.51c24.2,38.21,47.36,67,62.12,99.68,31.79,70.27,79.55,103.58,164,76.14C399.75,395.69,359,322.88,310.26,255.82Z"/></svg>