<svg id="Layer_1" data-name="Layer 1" xmlns="http://www.w3.org/2000/svg" viewBox="0 0 1141.85 158"><defs><style>.cls-1{fill:#fff;}</style></defs><title>name_3</title><path class="cls-1" d="M713.93.95h32.16V154.28H714.75V92.51H645.92v62H614.53V.84h31V63h68.35Z"/><path class="cls-1" d="M823.84,154.27V.83H931.17V29.91H856.72V63.4h65.52V91.74H856.41v32.88h74.78v29.64Z"/><path class="cls-1" d="M1139.73,153.55c-23.54,7.59-37.08-1.8-48.06-22.16-14.56-27-32.29-52.25-51.38-77.68V154.29h-32V.19c11.23,0,22.12-.33,33,.25,2.55.14,5.75,2.83,7.26,5.23q45.77,72.5,91.13,145.27C1140.07,151.56,1139.73,152.65,1139.73,153.55Z"/><path class="cls-1" d="M289.31,29.82V1.08H413.56v28H368.37v125H335.84V29.82Z"/><path class="cls-1" d="M544.07.11c-14.84,23.55-27.88,45.08-41.84,66-5.63,8.44-5.78,14.53.17,23.2,14.2,20.7,27,42.36,41.74,65.84-12.29,0-21.86.69-31.24-.35-3.62-.4-7.87-4-10-7.34-13.34-20.45-26.52-41-38.83-62.1-2.31-4-2.38-11.52-.1-15.45,12.28-21.09,25.33-41.75,38.87-62.06,2.51-3.76,8.26-6.76,12.89-7.41C524.13-.74,532.82.11,544.07.11Z"/><path class="cls-1" d="M231.48,154.58H200.7V1h30.77Z"/><path class="cls-1" d="M1110.94,1H1142V31.12h-31.06Z"/><path class="cls-1" d="M102.33,83.55c-10.39-14.31-9.9-25.06.38-38.57,10.16-13.36,18.23-28.3,27.57-43.12-31.9-5.2-32.25-5-47.2,18.84Q57.45,61.56,31.75,102.39V.68H-.17V152.94l.77.32-.53,1,3.71.35h0c28.73,2.67,29.36,1.69,44.88-22.88L71.86,95c8,12.62,15.64,22.14,20.51,32.91,10.49,23.2,26.27,34.2,54.14,25.14C131.88,129.73,118.41,105.69,102.33,83.55Z"/></svg>