<svg id="Layer_1" data-name="Layer 1" xmlns="http://www.w3.org/2000/svg" viewBox="0 0 450 693"><defs><style>.cls-1{fill:gray;}</style></defs><title>logo_5</title><path class="cls-1" d="M280.27,634H292.7v59.27H280.58V669.37H254v24H241.85V633.94h12v24h26.42Z"/><path class="cls-1" d="M322.75,693.24V633.94h41.49v11.24H335.46v12.95h25.33v11H335.34v12.71h28.9v11.46Z"/><path class="cls-1" d="M444.85,693c-9.1,2.93-14.33-.7-18.58-8.56-5.63-10.43-12.48-20.19-19.86-30v38.88H394.06V633.69c4.34,0,8.55-.13,12.74.1a4.4,4.4,0,0,1,2.81,2q17.69,28,35.22,56.15C445,692.2,444.85,692.62,444.85,693Z"/><path class="cls-1" d="M116.14,645.14V634h48v10.83H146.7v48.32H134.13v-48Z"/><path class="cls-1" d="M214.61,633.66c-5.74,9.1-10.77,17.43-16.17,25.51-2.18,3.26-2.23,5.62.07,9,5.49,8,10.43,16.37,16.13,25.45-4.75,0-8.45.27-12.07-.13a6.41,6.41,0,0,1-3.88-2.84c-5.15-7.9-10.25-15.86-15-24a7,7,0,0,1,0-6c4.75-8.15,9.79-16.14,15-24a7.85,7.85,0,0,1,5-2.86C206.9,633.33,210.27,633.66,214.61,633.66Z"/><path class="cls-1" d="M93.79,693.36H81.9V634H93.79Z"/><path class="cls-1" d="M433.72,634h12v11.65h-12Z"/><path class="cls-1" d="M43.87,665.91c-4-5.53-3.83-9.69.15-14.91s7-10.94,10.66-16.67c-12.33-2-12.47-1.93-18.24,7.28q-9.91,15.79-19.84,31.57V633.88H4.25v58.85l.3.12-.2.38,1.43.13h0c11.1,1,11.35.65,17.35-8.84l9-14.18c3.09,4.88,6,8.56,7.93,12.72,4.06,9,10.15,13.22,20.93,9.72C55.29,683.76,50.09,674.47,43.87,665.91Z"/><path class="cls-1" d="M298.76,563.47l-.62,0c-5.54-.3-9.15-4.71-10.34-6.16a44.85,44.85,0,0,0-6.9-6.91c-4.91-3.85-10.51-9.2-10.14-16.56a14.45,14.45,0,0,1,1.78-6.19c-4.12-.14-8.11-.21-12-.27-10.27-.17-20-.34-29.74-1.8-22.12-3.31-40.53-10.78-54.73-22.18-15.06-12.1-25.84-29-32-50.13-8.06-27.54-24.38-49.32-49.9-66.6C83,379.14,71.8,371.43,61,364c-7.26-5-14.77-10.15-22.16-15.2-4.29-2.93-12.28-8.38-9.57-19,1.8-7.11,7-11.89,15.42-14.21,9.89-2.72,20.08-1.38,30.27,4,12.84,6.78,25.68,13.57,39.13,20.68l4.38,2.32c-2.72-6.13-7.23-10.7-14-14.41-6.21-3.41-10.69-5.88-12.33-10.82a13.75,13.75,0,0,1,0-7.95H18.38c-.61,0-1.24,0-1.91,0-3.64.11-8.63.26-12.43-3.34-2.68-2.53-4-6.21-4.16-11.24-.14-5.44,1.12-9.43,3.85-12.21,3.93-4,9.22-4,13.89-4h1c86.83,0,175.11,0,260.48.05l151.74,0h0c.62,0,1.25,0,1.87,0,3.7-.11,8.76-.26,12.62,3.4,2.69,2.55,4.06,6.22,4.18,11.22.13,5.41-1.13,9.39-3.87,12.17-4,4-9.51,4-14,3.95h-1.09c-22.55-.08-46.6-.08-71.76.4,3.87,7.51,1.86,16.14-.59,23-4,11.12-3.87,23.26-3.76,36.12,0,2.91.05,5.92,0,8.88-.23,26.36-.25,50.35,1.8,74.52a43.08,43.08,0,0,1,12.94,4.9c7.49,4.16,16.14,11.13,17.94,18.21,1.72,6.76-2.77,10.58-4.68,12.21-.29.25-.57.49-.76.67-9.14,8.85-18.46,17.82-27.47,26.49-14.73,14.17-30,28.83-44.8,43.37C307.16,560.46,303.52,563.47,298.76,563.47Zm.07-12.88,0,0,.13-.09Zm-4-22.93a11.79,11.79,0,0,1,8.31,3.24,12.42,12.42,0,0,1,3.6,9.07,11.66,11.66,0,0,1-.66,3.82c13.14-12.83,26.49-25.67,39.45-38.14,9-8.66,18.31-17.62,27.44-26.46.47-.46.94-.86,1.35-1.21l.27-.23c-1-1.72-4.2-5.08-9.6-8.41-6.37-3.92-11.31-5-12.53-4.68a6.31,6.31,0,0,1-8.19-5.42c-2.63-26.75-2.63-52.77-2.38-81.58,0-2.86,0-5.81,0-8.66-.12-13.39-.24-27.24,4.5-40.48,4-11.2,2.58-15.06-6.92-18.77a6.33,6.33,0,0,1,2.13-12.22c31.51-.87,61.45-.9,89.11-.8h1.16a24.3,24.3,0,0,0,4.79-.24,9.08,9.08,0,0,0,.27-2.91,8.83,8.83,0,0,0-.28-2.23,23.67,23.67,0,0,0-3.51-.06c-.72,0-1.46,0-2.24,0h0l-151.74,0c-85.38,0-173.66,0-260.49-.05H17.56a25.3,25.3,0,0,0-4.76.24,12.72,12.72,0,0,0,0,5.18,25.79,25.79,0,0,0,3.31,0c.73,0,1.49,0,2.29,0h82.53a6.33,6.33,0,0,1,5.94,8.5l-.06.15a60.47,60.47,0,0,0-2.57,7.87,53.28,53.28,0,0,0,6.32,3.81c14.46,8,21.93,19.71,23.5,37a6.33,6.33,0,0,1-9.26,6.17l-16.67-8.82C94.67,344.29,81.84,337.5,69,330.72c-7.36-3.88-14.23-4.86-21-3-4.93,1.36-6,3.26-6.51,5.12-.37,1.47-.53,2.07,4.44,5.47,7.41,5.06,14.93,10.23,22.2,15.23,10.82,7.44,22,15.14,33.07,22.62,27.67,18.73,46.15,43.47,54.95,73.52,10.69,36.52,35.71,57.25,76.49,63.35,8.94,1.34,18.24,1.5,28.08,1.66,8.49.14,17.28.29,27.15,1.15a6.33,6.33,0,0,1,2.83,11.65c-7.1,4.49-7.3,6.85-7.3,6.95a2,2,0,0,0,.33,1,11,11,0,0,1,2.16-3.91,11.52,11.52,0,0,1,8.5-3.85Zm-.71,12.08.12.15-.07-.3Zm1.69,0h0ZM256,431c-26.87,0-44.35-15.4-48-42.38-1.66-12.18-1.19-24.15-.47-37.41A69.76,69.76,0,0,0,207,336c-1-5.77-3.46-5.94-4.78-6-3.47-.24-5.67,1.11-7.37,4.53-4.76,9.57-5.21,20.27-5.78,33.81l-.06,1.48a6.33,6.33,0,0,1-10.92,4.08c-8.53-9-13.83-19.46-19-29.56-7.08-14-13.77-27.14-28.38-34.72a6.33,6.33,0,0,1,2.92-11.94h191a6.33,6.33,0,0,1,2.55,12.12c-19.16,8.45-20.73,23.34-22.55,40.59l-.2,1.91c-.61,5.65-1,11.48-1.41,17.12-.44,6.23-.89,12.68-1.62,19.05-3.25,28.68-17.39,42.21-44.49,42.6ZM201.44,317.26q.82,0,1.66.06c8.69.61,14.65,6.62,16.36,16.5a81.15,81.15,0,0,1,.63,18.09c-.69,12.6-1.13,23.94.38,35,2.8,20.58,15.06,31.44,35.49,31.44h.84c10.36-.15,17.78-2.52,22.69-7.24s8.12-12.75,9.41-24.14c.69-6.11,1.14-12.42,1.57-18.52.4-5.75.82-11.69,1.45-17.57h0l.2-1.89c1.38-13.1,2.89-27.43,12.85-38.73H152.39c7.95,8.42,13,18.46,18,28.29,2.3,4.53,4.54,8.94,7,13.14.84-8,2.46-15.53,6.09-22.85C187.25,321.33,193.58,317.26,201.44,317.26Z"/><path class="cls-1" d="M21.67,274.15c-5.71,0-12-.51-16.39-4.86S.23,258.2.22,252.89C0,146.09,75.09,53.25,178.74,32.13c6.27-1.28,8.32-2.84,10.42-8C195.4,9,208.33.46,225.57.13c18.29-.35,31.65,7.63,37.57,22.46,2.86,7.16,6.82,9.22,14.6,11.13A230.71,230.71,0,0,1,348.39,64a221.13,221.13,0,0,1,89.56,115.06,230.41,230.41,0,0,1,12,75.64c0,5.2-.62,11.06-4.71,15s-9.81,4.4-14.94,4.36c-51.63-.34-104.15-.3-154.93-.26l-50.69,0q-25.48,0-51,0c-49.57,0-100.82-.1-151.21.29l0-6.33,0,6.33ZM226.75,12.77h-.94c-12.4.24-20.56,5.54-24.94,16.2-4.3,10.46-10.94,13.78-19.6,15.54a206.46,206.46,0,0,0-67.65,26.85,211.29,211.29,0,0,0-53.35,47.16,214,214,0,0,0-47.4,134.33c0,5.7,1,7.13,1.31,7.43.57.57,2.47,1.23,8.27,1.19,50.45-.39,101.73-.34,151.32-.29q25.47,0,51,0H225l50.36,0c50.81,0,103.34-.08,155,.26,5.16,0,6-.74,6-.77s.84-.88.88-6A217.78,217.78,0,0,0,426,183.15,208.48,208.48,0,0,0,341.51,74.66,218.09,218.09,0,0,0,274.73,46c-10.55-2.59-18.56-6.76-23.34-18.72C247.54,17.66,239.25,12.77,226.75,12.77Zm14.59,27H211a6.33,6.33,0,0,1-4.84-10.41c7.44-8.83,14.5-12.95,21.62-12.6,6.77.33,12.9,4.62,18.73,13.09a6.33,6.33,0,0,1-5.21,9.91Z"/></svg>