<svg id="Layer_1" data-name="Layer 1" xmlns="http://www.w3.org/2000/svg" viewBox="0 0 48 74"><defs><style>.cls-1{fill:gray;}</style></defs><title>logo_1</title><path class="cls-1" d="M30,67.2h1.32v6.27H30.07V70.94H27.26v2.54H26V67.19h1.27v2.54H30Z"/><path class="cls-1" d="M34.53,73.47V67.19h4.39v1.19h-3v1.37h2.68v1.16H35.87v1.35h3.06v1.21Z"/><path class="cls-1" d="M47.45,73.44a1.48,1.48,0,0,1-2-.91,25.58,25.58,0,0,0-2.1-3.18v4.11H42.08v-6.3c.46,0,.9,0,1.35,0a.47.47,0,0,1,.3.21q1.87,3,3.73,5.94S47.45,73.4,47.45,73.44Z"/><path class="cls-1" d="M12.67,68.38V67.2h5.08v1.15H15.9v5.11H14.57V68.38Z"/><path class="cls-1" d="M23.09,67.17c-.61,1-1.14,1.84-1.71,2.7a.72.72,0,0,0,0,.95c.58.85,1.1,1.73,1.71,2.69a12.42,12.42,0,0,1-1.28,0,.68.68,0,0,1-.41-.3c-.55-.84-1.08-1.68-1.59-2.54a.74.74,0,0,1,0-.63c.5-.86,1-1.71,1.59-2.54a.83.83,0,0,1,.53-.3A9,9,0,0,1,23.09,67.17Z"/><path class="cls-1" d="M10.3,73.48H9V67.2H10.3Z"/><path class="cls-1" d="M46.28,67.2h1.27v1.23H46.28Z"/><path class="cls-1" d="M5,70.58A1.14,1.14,0,0,1,5,69c.42-.55.75-1.16,1.13-1.76C4.86,67,4.85,67,4.23,68l-2.1,3.34V67.19H.83v6.23h0l0,0H1c1.17.11,1.2.07,1.84-.94L3.78,71a12.24,12.24,0,0,1,.84,1.35,1.61,1.61,0,0,0,2.21,1C6.23,72.47,5.68,71.48,5,70.58Z"/><path class="cls-1" d="M32,59.74h-.07a1.6,1.6,0,0,1-1.09-.65,4.75,4.75,0,0,0-.73-.73A2.22,2.22,0,0,1,29,56.6a1.53,1.53,0,0,1,.19-.65l-1.27,0a23.8,23.8,0,0,1-3.15-.19A11.92,11.92,0,0,1,19,53.38a10.34,10.34,0,0,1-3.39-5.31,12.53,12.53,0,0,0-5.28-7l-3.51-2.4L4.48,37a1.82,1.82,0,0,1-1-2A2.09,2.09,0,0,1,5.1,33.5a4.27,4.27,0,0,1,3.2.42l4.14,2.19.46.25a3.19,3.19,0,0,0-1.48-1.52c-.66-.36-1.13-.62-1.3-1.15a1.46,1.46,0,0,1,0-.84h-8A1.72,1.72,0,0,1,.81,32.5a1.61,1.61,0,0,1-.44-1.19A1.69,1.69,0,0,1,.77,30a1.88,1.88,0,0,1,1.47-.42H46.17a1.74,1.74,0,0,1,1.34.36A1.6,1.6,0,0,1,48,31.15a1.68,1.68,0,0,1-.41,1.29,1.91,1.91,0,0,1-1.48.42h-.12c-2.39,0-4.93,0-7.59,0a3.07,3.07,0,0,1-.06,2.43,11,11,0,0,0-.4,3.82c0,.31,0,.63,0,.94,0,2.79,0,5.33.19,7.89a4.56,4.56,0,0,1,1.37.52,3.89,3.89,0,0,1,1.9,1.93,1.22,1.22,0,0,1-.5,1.29l-.08.07-2.91,2.8c-1.56,1.5-3.17,3.05-4.74,4.59A1.68,1.68,0,0,1,32,59.74Zm0-1.36h0Zm-.42-2.43a1.25,1.25,0,0,1,.88.34,1.31,1.31,0,0,1,.38,1,1.23,1.23,0,0,1-.07.4c1.39-1.36,2.8-2.72,4.17-4l2.9-2.8.14-.13,0,0a3.26,3.26,0,0,0-1-.89,2.62,2.62,0,0,0-1.33-.5.67.67,0,0,1-.87-.57,79.94,79.94,0,0,1-.25-8.63c0-.3,0-.61,0-.92A12.2,12.2,0,0,1,37,34.87c.42-1.19.27-1.59-.73-2a.67.67,0,0,1,.23-1.29c3.33-.09,6.5-.1,9.43-.08h.12a2.57,2.57,0,0,0,.51,0,1,1,0,0,0,0-.31.93.93,0,0,0,0-.24,2.5,2.5,0,0,0-.37,0h-44a2.68,2.68,0,0,0-.5,0,1.35,1.35,0,0,0,0,.55,2.73,2.73,0,0,0,.35,0h9a.67.67,0,0,1,.63.9v0a6.4,6.4,0,0,0-.27.83,5.64,5.64,0,0,0,.67.4,4.58,4.58,0,0,1,2.49,3.92.67.67,0,0,1-1,.65l-1.76-.93L7.68,35.11a2.94,2.94,0,0,0-2.22-.32c-.52.14-.64.35-.69.54s-.06.22.47.58l2.35,1.61,3.5,2.39A14,14,0,0,1,16.9,47.7C18,51.56,20.68,53.76,25,54.4a22.82,22.82,0,0,0,3,.18c.9,0,1.83,0,2.87.12a.67.67,0,0,1,.3,1.23c-.75.47-.77.72-.77.74a.21.21,0,0,0,0,.1,1.17,1.17,0,0,1,.23-.41,1.22,1.22,0,0,1,.9-.41Zm-.07,1.28v0Zm.18,0h0ZM27.47,45.72a4.77,4.77,0,0,1-5.08-4.49,20.67,20.67,0,0,1-.05-4,7.38,7.38,0,0,0,0-1.61c-.11-.61-.37-.63-.51-.64a.73.73,0,0,0-.78.48,8.71,8.71,0,0,0-.61,3.58v.16a.67.67,0,0,1-1.16.43,12.65,12.65,0,0,1-2-3.13c-.75-1.48-1.46-2.87-3-3.67a.67.67,0,0,1,.31-1.26H34.74A.67.67,0,0,1,35,32.89c-2,.89-2.19,2.47-2.39,4.3l0,.2c-.06.6-.11,1.21-.15,1.81s-.09,1.34-.17,2c-.34,3-1.84,4.47-4.71,4.51Zm-5.77-12h.18a1.88,1.88,0,0,1,1.73,1.75,8.59,8.59,0,0,1,.07,1.91,19.6,19.6,0,0,0,0,3.71,3.46,3.46,0,0,0,3.76,3.33h.09a3.4,3.4,0,0,0,2.4-.77,4.08,4.08,0,0,0,1-2.55c.07-.65.12-1.31.17-2s.09-1.24.15-1.86h0l0-.2a6.92,6.92,0,0,1,1.36-4.1H16.51a12.26,12.26,0,0,1,1.91,3c.24.48.48.95.74,1.39a6.9,6.9,0,0,1,.64-2.42A2,2,0,0,1,21.7,33.68Z"/><path class="cls-1" d="M2.67,29.12a2.36,2.36,0,0,1-1.73-.51A2.39,2.39,0,0,1,.4,26.87,23.79,23.79,0,0,1,19.29,3.51c.66-.14.88-.3,1.1-.84A4,4,0,0,1,24.25.12a3.87,3.87,0,0,1,4,2.38,1.8,1.8,0,0,0,1.55,1.18,24.42,24.42,0,0,1,7.48,3.21,23.4,23.4,0,0,1,9.48,12.18,24.38,24.38,0,0,1,1.27,8,2.15,2.15,0,0,1-.5,1.59,2.17,2.17,0,0,1-1.58.46c-5.46,0-11,0-16.4,0H18.77c-5.25,0-10.67,0-16,0v0ZM24.37,1.46h-.1a2.64,2.64,0,0,0-2.64,1.71,2.5,2.5,0,0,1-2.07,1.65A21.85,21.85,0,0,0,12.4,7.66a22.36,22.36,0,0,0-5.65,5,22.65,22.65,0,0,0-5,14.22c0,.6.11.75.14.79s.26.13.87.13c5.34,0,10.77,0,16,0H29.52c5.38,0,10.94,0,16.41,0,.55,0,.63-.08.64-.08s.09-.09.09-.64a23,23,0,0,0-1.2-7.57A22.06,22.06,0,0,0,36.52,8a23.08,23.08,0,0,0-7.07-3A3.1,3.1,0,0,1,27,3,2.52,2.52,0,0,0,24.37,1.46Zm1.54,2.86H22.71a.67.67,0,0,1-.51-1.1,2.94,2.94,0,0,1,2.29-1.33,2.66,2.66,0,0,1,2,1.39.67.67,0,0,1-.55,1Z"/></svg>