<svg id="Layer_1" data-name="Layer 1" xmlns="http://www.w3.org/2000/svg" viewBox="0 0 2119.11 291"><defs><style>.cls-1{fill:gray;}</style></defs><title>name_4</title><path class="cls-1" d="M1319.76,3.49h59.44V286.91h-57.92V172.74H1194V287.32h-58V3.29h57.39V118.19h126.34Z"/><path class="cls-1" d="M1522.91,286.89V3.27H1721.3V57H1583.69v61.91H1704.8v52.37H1583.12V232.1h138.22v54.79Z"/><path class="cls-1" d="M2106.8,285.56c-43.51,14-68.53-3.33-88.83-41-26.91-49.87-59.69-96.57-95-143.59V286.93h-59.07V2.1c20.75,0,40.88-.62,60.91.45,4.71.25,10.63,5.24,13.43,9.67q84.61,134,168.45,268.51C2107.44,281.89,2106.8,283.91,2106.8,285.56Z"/><path class="cls-1" d="M534.89,56.86V3.74H764.55v51.8H681V286.6H620.92V56.86Z"/><path class="cls-1" d="M1005.8,1.94c-27.43,43.53-51.53,83.33-77.33,122-10.41,15.6-10.68,26.87.31,42.88,26.25,38.26,49.89,78.3,77.15,121.7-22.72,0-40.41,1.27-57.74-.64-6.7-.74-14.54-7.43-18.55-13.57-24.65-37.8-49-75.83-71.77-114.78-4.26-7.3-4.41-21.3-.18-28.55,22.69-39,46.82-77.17,71.85-114.71,4.64-7,15.27-12.49,23.83-13.7C968.93.38,985,1.94,1005.8,1.94Z"/><path class="cls-1" d="M428,287.47H371.12V3.66H428Z"/><path class="cls-1" d="M2053.59,3.56H2111V59.27h-57.41Z"/><path class="cls-1" d="M189.29,156.18c-19.21-26.45-18.29-46.32.7-71.29,18.78-24.69,33.7-52.32,51-79.7C182-4.43,181.34-4.05,153.71,40q-47.38,75.53-94.89,151V3h-59V284.43l1.41.59c-.33.61-.63,1.19-1,1.8l6.86.64h0c53.09,4.93,54.27,3.13,83-42.28,13.76-21.78,27.53-43.56,42.88-67.83,14.77,23.32,28.9,40.92,37.91,60.84,19.4,42.89,48.55,63.22,100.07,46.47C243.9,241.54,219,197.1,189.29,156.18Z"/></svg>