<svg id="Layer_1" data-name="Layer 1" xmlns="http://www.w3.org/2000/svg" viewBox="0 0 347 48"><defs><style>.cls-1{fill:gray;}</style></defs><title>name_1</title><path class="cls-1" d="M217.26.68H227V47.15h-9.5V28.43H196.65V47.22h-9.51V.64h9.41V19.48h20.72Z"/><path class="cls-1" d="M250.57,47.15V.64H283.1V9.45H260.54V19.61h19.86v8.59h-20v10h22.66v9Z"/><path class="cls-1" d="M346.31,46.93c-7.13,2.3-11.24-.55-14.57-6.72a189.57,189.57,0,0,0-15.57-23.54V47.15h-9.69V.45c3.4,0,6.7-.1,10,.07a3.45,3.45,0,0,1,2.2,1.58q13.87,22,27.62,44C346.42,46.33,346.31,46.66,346.31,46.93Z"/><path class="cls-1" d="M88.56,9.43V.72h37.66V9.21h-13.7V47.1h-9.86V9.43Z"/><path class="cls-1" d="M165.78.42c-4.5,7.14-8.45,13.66-12.68,20-1.71,2.56-1.75,4.41.05,7,4.3,6.27,8.18,12.84,12.65,20a92,92,0,0,1-9.47-.11,5,5,0,0,1-3-2.23c-4-6.2-8-12.43-11.77-18.82a5.51,5.51,0,0,1,0-4.68c3.72-6.39,7.68-12.65,11.78-18.81A6.16,6.16,0,0,1,157.18.52C159.73.17,162.37.42,165.78.42Z"/><path class="cls-1" d="M71,47.24H61.71V.7H71Z"/><path class="cls-1" d="M337.59.69H347V9.82h-9.41Z"/><path class="cls-1" d="M31.89,25.71c-3.15-4.34-3-7.6.11-11.69S37.53,5.45,40.37,1C30.7-.62,30.59-.56,26.06,6.66Q18.29,19,10.5,31.42V.6H.83V46.74l.23.1-.16.3L2,47.24H2c8.71.81,8.9.51,13.6-6.93l7-11.12c2.42,3.82,4.74,6.71,6.22,10,3.18,7,8,10.37,16.41,7.62C40.85,39.71,36.77,32.42,31.89,25.71Z"/></svg>